# Made in Blockbench 4.9.4
mtllib rolling_pin.mtl

o rolling_pin
v -0.1875 0 -0.6875
v 0.1875 0 -0.6875
v 0.15625 0.125 0.90625
v -0.15625 0.125 0.90625
v -0.40625 0.25 -0.6875
v -0.28125 0.3125 0.90625
v -0.34375 0.65625 -0.6875
v -0.25 0.59375 0.90625
v 0.34375 0.65625 -0.6875
v 0 0.78125 -0.6875
v 0 0.6875 0.90625
v 0.25 0.59375 0.90625
v 0 0.5625 -1.46875
v 0.15625 0.5 -1.46875
v 0.09375 0.453125 -1.5625
v 0 0.5 -1.5625
v 0.25 0.5625 -0.78125
v 0 0.65625 -0.78125
v 0.28125 0.3125 -0.78125
v 0.40625 0.25 -0.6875
v 0.125 0.125 -0.78125
v -0.125 0.125 -0.78125
v -0.28125 0.3125 -0.78125
v -0.25 0.5625 -0.78125
v 0.15625 0.5 -0.78125
v 0 0.5625 -0.78125
v 0.1875 0.34375 -0.78125
v 0.0625 0.21875 -0.78125
v -0.0625 0.21875 -0.78125
v -0.1875 0.34375 -0.78125
v -0.125 0.5 -0.78125
v 0.109375 0.359375 -1.5625
v 0.046875 0.265625 -1.5625
v -0.1875 0.328125 -1.46875
v -0.15625 0.5 -1.46875
v -0.09375 0.453125 -1.5625
v -0.109375 0.359375 -1.5625
v 0.09375 0.203125 -1.46875
v -0.09375 0.203125 -1.46875
v -0.046875 0.265625 -1.5625
v 0.1875 0.328125 -1.46875
v 0.046875 0.265625 -0.859375
v 0.125 0.359375 -0.859375
v -0.125 0.359375 -0.859375
v -0.046875 0.265625 -0.859375
v 0 0.5 -0.859375
v -0.078125 0.453125 -0.859375
v 0.078125 0.453125 -0.859375
v 0.28125 0.3125 0.90625
v 0 0.515625 1.515625
v 0 0.46875 1.5625
v 0.0625 0.4375 1.5625
v 0.109375 0.46875 1.515625
v 0.15625 0.53125 0.96875
v 0 0.59375 0.96875
v 0.1875 0.34375 0.96875
v 0.09375 0.21875 0.96875
v -0.09375 0.21875 0.96875
v -0.1875 0.34375 0.96875
v -0.15625 0.53125 0.96875
v 0.09375 0.46875 0.96875
v 0 0.53125 0.96875
v 0.125 0.375 0.96875
v 0.0625 0.28125 0.96875
v -0.0625 0.28125 0.96875
v -0.125 0.375 0.96875
v -0.09375 0.46875 0.96875
v -0.0625 0.4375 1.5625
v -0.078125 0.359375 1.5625
v -0.03125 0.296875 1.5625
v -0.125 0.34375 1.515625
v -0.109375 0.46875 1.515625
v 0.0625 0.25 1.515625
v 0.03125 0.296875 1.5625
v -0.0625 0.25 1.515625
v 0.078125 0.359375 1.5625
v 0.125 0.34375 1.515625
v 0.078125 0.359375 1.046875
v 0.03125 0.296875 1.046875
v -0.03125 0.296875 1.046875
v -0.078125 0.359375 1.046875
v -0.0625 0.4375 1.046875
v 0 0.46875 1.046875
v 0.0625 0.4375 1.046875
vt 0.125 0.46875
vt 0.21875 0.46875
vt 0.21875 0.875
vt 0.140625 0.875
vt 0.421875 0.984375
vt 0.421875 0.90625
vt 0.828125 0.921875
vt 0.828125 0.984375
vt 0.109375 0.890625
vt 0 0.890625
vt 0.015625 0.484375
vt 0.09375 0.484375
vt 0.640625 0.78125
vt 0.640625 0.875
vt 0.234375 0.859375
vt 0.234375 0.796875
vt 0.78125 0.28125
vt 0.734375 0.28125
vt 0.75 0.25
vt 0.765625 0.25
vt 0.6875 0.34375
vt 0.75 0.34375
vt 0.765625 0.375
vt 0.671875 0.375
vt 0.6875 0.390625
vt 0.75 0.390625
vt 0.78125 0.421875
vt 0.671875 0.421875
vt 0.484375 0.296875
vt 0.484375 0.34375
vt 0.453125 0.359375
vt 0.453125 0.28125
vt 0.6875 0.75
vt 0.625 0.75
vt 0.609375 0.71875
vt 0.703125 0.71875
vt 0.703125 0.46875
vt 0.65625 0.46875
vt 0.640625 0.4375
vt 0.71875 0.4375
vt 0.625 0.375
vt 0.625 0.3125
vt 0.65625 0.28125
vt 0.65625 0.390625
vt 0.671875 0.875
vt 0.671875 0.8125
vt 0.703125 0.796875
vt 0.703125 0.890625
vt 0.484375 0.71875
vt 0.53125 0.734375
vt 0.53125 0.765625
vt 0.46875 0.734375
vt 0.484375 0.6875
vt 0.484375 0.71875
vt 0.46875 0.734375
vt 0.453125 0.671875
vt 0.515625 0.65625
vt 0.484375 0.6875
vt 0.453125 0.671875
vt 0.5 0.625
vt 0.546875 0.65625
vt 0.515625 0.65625
vt 0.5 0.625
vt 0.5625 0.625
vt 0.578125 0.6875
vt 0.546875 0.65625
vt 0.5625 0.625
vt 0.59375 0.671875
vt 0.5625 0.71875
vt 0.578125 0.6875
vt 0.59375 0.671875
vt 0.59375 0.734375
vt 0.53125 0.734375
vt 0.5625 0.71875
vt 0.59375 0.734375
vt 0.53125 0.765625
vt 0.375 0.21875
vt 0.375 0.265625
vt 0.34375 0.25
vt 0.34375 0.234375
vt 0.71875 0.75
vt 0.765625 0.75
vt 0.75 0.78125
vt 0.734375 0.78125
vt 0.484375 0.265625
vt 0.4375 0.265625
vt 0.453125 0.234375
vt 0.46875 0.234375
vt 0.765625 0.5625
vt 0.765625 0.609375
vt 0.734375 0.609375
vt 0.734375 0.578125
vt 0.75 0.46875
vt 0.78125 0.46875
vt 0.78125 0.5
vt 0.75 0.5
vt 0.609375 0.25
vt 0.609375 0.21875
vt 0.640625 0.21875
vt 0.640625 0.25
vt 0.140625 0.234375
vt 0.140625 0.1875
vt 0.171875 0.1875
vt 0.171875 0.234375
vt 0.671875 0.25
vt 0.71875 0.25
vt 0.703125 0.28125
vt 0.6875 0.28125
vt 0.125 0.203125
vt 0.125 0.234375
vt 0.09375 0.234375
vt 0.09375 0.203125
vt 0.796875 0.734375
vt 0.75 0.734375
vt 0.75 0.703125
vt 0.78125 0.703125
vt 0.75 0.625
vt 0.78125 0.625
vt 0.78125 0.65625
vt 0.75 0.65625
vt 0.421875 0.21875
vt 0.421875 0.265625
vt 0.390625 0.265625
vt 0.390625 0.234375
vt 0.796875 0.6875
vt 0.75 0.6875
vt 0.765625 0.65625
vt 0.78125 0.65625
vt 0.234375 0.375
vt 0.203125 0.375
vt 0.203125 0.21875
vt 0.234375 0.21875
vt 0.609375 0.390625
vt 0.609375 0.421875
vt 0.453125 0.421875
vt 0.453125 0.390625
vt 0.125 0.296875
vt 0.140625 0.296875
vt 0.171875 0.453125
vt 0.125 0.453125
vt 0.5625 0.609375
vt 0.5625 0.578125
vt 0.71875 0.5625
vt 0.71875 0.609375
vt 0.046875 0.46875
vt 0.015625 0.46875
vt 0 0.3125
vt 0.046875 0.3125
vt 0.078125 0.3125
vt 0.109375 0.3125
vt 0.109375 0.46875
vt 0.0625 0.46875
vt 0.453125 0.484375
vt 0.453125 0.453125
vt 0.609375 0.453125
vt 0.609375 0.5
vt 0.328125 0.765625
vt 0.234375 0.765625
vt 0.25 0.359375
vt 0.3125 0.359375
vt 0.359375 0.359375
vt 0.4375 0.359375
vt 0.421875 0.765625
vt 0.375 0.765625
vt 0.796875 0.609375
vt 0.78125 0.609375
vt 0.78125 0.59375
vt 0.796875 0.578125
vt 0.046875 0.25
vt 0.078125 0.234375
vt 0.078125 0.296875
vt 0.046875 0.28125
vt 0 0.25
vt 0.03125 0.234375
vt 0.03125 0.296875
vt 0 0.28125
vt 0.734375 0.890625
vt 0.71875 0.859375
vt 0.765625 0.859375
vt 0.75 0.890625
vt 0.6875 0.328125
vt 0.671875 0.296875
vt 0.75 0.296875
vt 0.734375 0.328125
vt 0.21875 0.4375
vt 0.1875 0.453125
vt 0.1875 0.390625
vt 0.21875 0.40625
vt 0.765625 0.515625
vt 0.78125 0.546875
vt 0.703125 0.546875
vt 0.71875 0.515625
vt 0.15625 0.25
vt 0.15625 0.28125
vt 0.09375 0.28125
vt 0.109375 0.25
vt 0.53125 0.578125
vt 0.546875 0.59375
vt 0.5 0.609375
vt 0.5 0.59375
vt 0.53125 0.546875
vt 0.546875 0.546875
vt 0.546875 0.59375
vt 0.53125 0.578125
vt 0.515625 0.53125
vt 0.53125 0.515625
vt 0.546875 0.546875
vt 0.53125 0.546875
vt 0.484375 0.53125
vt 0.484375 0.515625
vt 0.53125 0.515625
vt 0.515625 0.53125
vt 0.46875 0.546875
vt 0.453125 0.546875
vt 0.484375 0.515625
vt 0.484375 0.53125
vt 0.484375 0.578125
vt 0.46875 0.59375
vt 0.453125 0.546875
vt 0.46875 0.546875
vt 0.5 0.59375
vt 0.5 0.609375
vt 0.46875 0.59375
vt 0.484375 0.578125
vt 0.75 0.84375
vt 0.71875 0.828125
vt 0.71875 0.8125
vt 0.734375 0.796875
vt 0.75 0.234375
vt 0.75 0.21875
vt 0.78125 0.21875
vt 0.78125 0.234375
vt 0.765625 0.4375
vt 0.765625 0.453125
vt 0.75 0.453125
vt 0.734375 0.4375
vt 0.4375 0.34375
vt 0.421875 0.34375
vt 0.421875 0.3125
vt 0.4375 0.3125
vt 0.78125 0.84375
vt 0.78125 0.828125
vt 0.8125 0.828125
vt 0.8125 0.84375
vt 0.78125 0.765625
vt 0.796875 0.765625
vt 0.796875 0.796875
vt 0.78125 0.796875
vt 0.8125 0.4375
vt 0.8125 0.453125
vt 0.796875 0.453125
vt 0.78125 0.4375
vt 0.796875 0.296875
vt 0.796875 0.328125
vt 0.765625 0.328125
vt 0.765625 0.296875
vt 0.4375 0.1875
vt 0.46875 0.1875
vt 0.46875 0.21875
vt 0.4375 0.21875
vt 0.65625 0.234375
vt 0.65625 0.203125
vt 0.6875 0.203125
vt 0.6875 0.234375
vt 0.578125 0.234375
vt 0.546875 0.234375
vt 0.546875 0.203125
vt 0.578125 0.203125
vt 0.65625 0.390625
vt 0.65625 0.421875
vt 0.625 0.421875
vt 0.625 0.390625
vt 0.703125 0.234375
vt 0.703125 0.203125
vt 0.734375 0.203125
vt 0.734375 0.234375
vt 0.53125 0.234375
vt 0.5 0.21875
vt 0.5 0.203125
vt 0.53125 0.203125
vt 0.734375 0.65625
vt 0.609375 0.65625
vt 0.609375 0.625
vt 0.734375 0.640625
vt 0.3125 0.34375
vt 0.296875 0.21875
vt 0.328125 0.21875
vt 0.328125 0.34375
vt 0.609375 0.671875
vt 0.734375 0.671875
vt 0.734375 0.703125
vt 0.609375 0.6875
vt 0.59375 0.25
vt 0.59375 0.375
vt 0.5625 0.375
vt 0.578125 0.25
vt 0.53125 0.375
vt 0.515625 0.25
vt 0.546875 0.25
vt 0.546875 0.375
vt 0.5625 0.53125
vt 0.6875 0.515625
vt 0.6875 0.546875
vt 0.5625 0.546875
vt 0.265625 0.21875
vt 0.28125 0.34375
vt 0.25 0.34375
vt 0.25 0.21875
vt 0.40625 0.890625
vt 0.40625 1
vt 0 0.984375
vt 0 0.921875
vt 0.3671875 0.34375
vt 0.3359375 0.32421875
vt 0.3984375 0.32421875
vt 0.3984375 0.32421875
vt 0.3828125 0.2734375
vt 0.3984375 0.30859375
vt 0.3359375 0.30859375
vt 0.3515625 0.2734375
vt 0.3359375 0.32421875
vt 0.3828125 0.2734375
vt 0.3359375 0.32421875
vt 0.3515625 0.2734375
vt 0.3984375 0.32421875
vt 0.3359375 0.32421875
vt 0.3828125 0.2734375
vt 0.765625 0.8125
vt 0.765625 0.828125
vt 0.75 0.84375
vt 0.75 0.84375
vt 0.75 0.796875
vt 0.765625 0.8125
vt 0.75 0.84375
vt 0.734375 0.796875
vt 0.75 0.796875
vn 0 -0.9969383778125516 0.07819124531863149
vn -0.7509229304003134 -0.6570575641002743 0.06625790562355707
vn -0.9858509902589375 0.15166938311675962 0.07137382734906335
vn 0.3412220572004228 0.9383606573011628 0.05519768572359781
vn 0.30256374339557957 0.7564093584889489 -0.5799138415081941
vn 0.21951219512195122 0.5853658536585366 -0.7804878048780488
vn 0.6620847108818945 0.08276058886023681 -0.7448452997421312
vn 0.4359235317268345 -0.3632696097723621 -0.8234111154840208
vn 0 -0.6 -0.8
vn -0.4538456150933693 -0.37820467924447443 -0.8068366490548787
vn -0.6227991553292184 0.0778498944161523 -0.778498944161523
vn -0.21538744758532144 0.5743665268941905 -0.7897539744795119
vn 0 0 -1
vn 0 0 -1
vn 0 0 -1
vn 0 0 -1
vn 0 0 -1
vn 0 0 -1
vn 0 0 -1
vn -0.7888508821607 0.14342743312012726 -0.5976143046671969
vn 0 -0.8320502943378438 -0.5547001962252291
vn 0.783220739959795 0.14240377090178089 -0.6052160263325688
vn -0.3157894736842105 0.7894736842105263 -0.5263157894736842
vn -0.6045512662318541 -0.4534134496738905 -0.6549305384178419
vn 0.6246950475544243 -0.4685212856658182 -0.6246950475544243
vn 0.6154574548966637 -0.6154574548966637 -0.492365963917331
vn -0.5773502691896257 -0.5773502691896257 -0.5773502691896257
vn -0.363696483726654 0.727392967453308 -0.5819143739626463
vn 0.7862568296530489 0.15725136593060976 -0.5975551905363171
vn 0 -0.8574929257125443 -0.5144957554275266
vn -0.7321342658217784 0.2928537063287114 -0.6149927832902938
vn 0.27216552697590873 0.6804138174397717 -0.6804138174397717
vn 0.762312049220902 -0.6352600410174183 0.12379426440339433
vn -0.7634797352874387 -0.6362331127395322 0.11093295299048254
vn -0.5125174508910492 0.8541957514850819 0.0876098206651366
vn 0.8923176899709544 0.4461588449854772 0.06863982230545802
vn 0 -0.9947814386110525 0.10202886549856949
vn -0.8846517369293828 0.4423258684646914 0.14744195615489714
vn 0.5100763662613724 0.8501272771022874 0.13078881186189037
vn -0.3411900804217101 0.938272721159703 0.05686501340361836
vn 0.7498821813420341 -0.6561469086742798 0.08454554005326854
vn 0.3333333333333333 0.6666666666666666 0.6666666666666666
vn 0.19813745600514793 0.5283665493470612 0.8255727333547831
vn 0.5680749627880228 0.06311944030978031 0.8205527240271442
vn 0.42857142857142866 -0.28571428571428575 0.8571428571428573
vn 0 -0.5547001962252291 0.8320502943378437
vn -0.4561715527618233 -0.3041143685078822 0.8363145133966761
vn -0.5264598425167112 0.05849553805741236 0.8481853018324792
vn -0.2036532699906392 0.5430753866417045 0.8146130799625568
vn 0 0 1
vn 0 0 1
vn 0 0 1
vn 0 0 1
vn 0 0 1
vn 0 0 1
vn 0 0 1
vn 0 0 1
vn -0.7233642332556182 0.14467284665112365 0.6751399510385769
vn 0 -0.7071067811865476 0.7071067811865476
vn 0.6559042041699392 0.13118084083398784 0.7433580980592643
vn -0.30942637387763805 0.6188527477552761 0.7219948723811555
vn -0.5292973096694771 -0.3969729822521078 0.7498378553650925
vn 0.5656854249492381 -0.4242640687119286 0.7071067811865476
vn 0.7527099294949816 -0.5645324471212362 0.3387194682727417
vn -0.7322520259382125 -0.5491890194536594 0.40273861426601687
vn -0.39405520311955033 0.7881104062391007 0.47286624374346037
vn 0.8872168012345951 0.17744336024691904 0.4258640645926057
vn 0 -0.9805806756909202 0.19611613513818404
vn -0.8305693677313694 0.16611387354627385 0.5315643953480763
vn 0.363696483726654 0.727392967453308 0.5819143739626463
vn 0.8277808988368525 -0.5518539325579016 -0.10117322096894864
vn -0.826976769629957 -0.5513178464199714 -0.11026356928399428
vn -0.39193833369309405 0.9145227786172194 -0.10016201861045736
vn 0.9865939293609809 0.12332424117012261 -0.10688100901410626
vn 0 -0.9950371902099892 -0.09950371902099892
vn -0.9878216236146274 0.12347770295182843 -0.09466623892973514
vn 0.39226579870060996 0.9152868636347565 -0.09152868636347565
vn 0.9863472579573629 0.15174573199344044 0.06397123995801901
vn 0 0 -1
vn 0 0 -1
vn 0 0 -1
vn 0 0 -1
vn 0 0 -1
vn 0 0 1
vn 0 0 1
vn 0 0 1
usemtl m_ade6c593-81c6-9b87-0d16-446365141926
f 1/1/1 2/2/1 3/3/1 4/4/1
f 5/5/2 1/6/2 4/7/2 6/8/2
f 7/9/3 5/10/3 6/11/3 8/12/3
f 9/13/4 10/14/4 11/15/4 12/16/4
f 13/17/5 14/18/5 15/19/5 16/20/5
f 17/21/6 18/22/6 10/23/6 9/24/6
f 19/25/7 17/26/7 9/27/7 20/28/7
f 21/29/8 19/30/8 20/31/8 2/32/8
f 22/33/9 21/34/9 2/35/9 1/36/9
f 23/37/10 22/38/10 1/39/10 5/40/10
f 24/41/11 23/42/11 5/43/11 7/44/11
f 18/45/12 24/46/12 7/47/12 10/48/12
f 25/49/13 26/50/13 18/51/13 17/52/13
f 27/53/14 25/54/14 17/55/14 19/56/14
f 28/57/15 27/58/15 19/59/15 21/60/15
f 29/61/16 28/62/16 21/63/16 22/64/16
f 30/65/17 29/66/17 22/67/17 23/68/17
f 31/69/18 30/70/18 23/71/18 24/72/18
f 26/73/19 31/74/19 24/75/19 18/76/19
f 34/77/20 35/78/20 36/79/20 37/80/20
f 38/81/21 39/82/21 40/83/21 33/84/21
f 14/85/22 41/86/22 32/87/22 15/88/22
f 35/89/23 13/90/23 16/91/23 36/92/23
f 39/93/24 34/94/24 37/95/24 40/96/24
f 41/97/25 38/98/25 33/99/25 32/100/25
f 27/101/26 28/102/26 42/103/26 43/104/26
f 29/105/27 30/106/27 44/107/27 45/108/27
f 31/109/28 26/110/28 46/111/28 47/112/28
f 25/113/29 27/114/29 43/115/29 48/116/29
f 28/117/30 29/118/30 45/119/30 42/120/30
f 30/121/31 31/122/31 47/123/31 44/124/31
f 26/125/32 25/126/32 48/127/32 46/128/32
f 43/129/33 42/130/33 38/131/33 41/132/33
f 45/133/34 44/134/34 34/135/34 39/136/34
f 47/137/35 46/138/35 13/139/35 35/140/35
f 48/141/36 43/142/36 41/143/36 14/144/36
f 42/145/37 45/146/37 39/147/37 38/148/37
f 44/149/38 47/150/38 35/151/38 34/152/38
f 46/153/39 48/154/39 14/155/39 13/156/39
f 10/157/40 7/158/40 8/159/40 11/160/40
f 2/161/41 20/162/41 49/163/41 3/164/41
f 50/165/42 51/166/42 52/167/42 53/168/42
f 54/169/43 12/170/43 11/171/43 55/172/43
f 56/173/44 49/174/44 12/175/44 54/176/44
f 57/177/45 3/178/45 49/179/45 56/180/45
f 58/181/46 4/182/46 3/183/46 57/184/46
f 59/185/47 6/186/47 4/187/47 58/188/47
f 60/189/48 8/190/48 6/191/48 59/192/48
f 55/193/49 11/194/49 8/195/49 60/196/49
f 61/197/50 54/198/50 55/199/50 62/200/50
f 63/201/51 56/202/51 54/203/51 61/204/51
f 64/205/52 57/206/52 56/207/52 63/208/52
f 65/209/53 58/210/53 57/211/53 64/212/53
f 66/213/54 59/214/54 58/215/54 65/216/54
f 67/217/55 60/218/55 59/219/55 66/220/55
f 62/221/56 55/222/56 60/223/56 67/224/56
f 51/225/57 68/226/57 69/227/57 70/228/57
f 71/229/58 69/230/58 68/231/58 72/232/58
f 73/233/59 74/234/59 70/235/59 75/236/59
f 53/237/60 52/238/60 76/239/60 77/240/60
f 72/241/61 68/242/61 51/243/61 50/244/61
f 75/245/62 70/246/62 69/247/62 71/248/62
f 77/249/63 76/250/63 74/251/63 73/252/63
f 63/253/64 78/254/64 79/255/64 64/256/64
f 65/257/65 80/258/65 81/259/65 66/260/65
f 67/261/66 82/262/66 83/263/66 62/264/66
f 61/265/67 84/266/67 78/267/67 63/268/67
f 64/269/68 79/270/68 80/271/68 65/272/68
f 66/273/69 81/274/69 82/275/69 67/276/69
f 62/277/70 83/278/70 84/279/70 61/280/70
f 78/281/71 77/282/71 73/283/71 79/284/71
f 80/285/72 75/286/72 71/287/72 81/288/72
f 82/289/73 72/290/73 50/291/73 83/292/73
f 84/293/74 53/294/74 77/295/74 78/296/74
f 79/297/75 73/298/75 75/299/75 80/300/75
f 81/301/76 71/302/76 72/303/76 82/304/76
f 83/305/77 50/306/77 53/307/77 84/308/77
f 20/309/78 9/310/78 12/311/78 49/312/78
f 16/313/79 15/314/79 36/315/79
f 36/316/80 40/317/80 37/318/80
f 32/319/81 33/320/81 15/321/81
f 40/322/82 15/323/82 33/324/82
f 36/325/83 15/326/83 40/327/83
f 76/328/84 52/329/84 51/330/84
f 51/331/85 74/332/85 76/333/85
f 51/334/86 70/335/86 74/336/86