# Made in Blockbench 4.9.4
mtllib spatula.mtl

o spatula
v 0 0.0625 1.5625
v 0 0.09375 0.9375
v 0.0625 0.15625 0.9375
v 0.09375 0.125 1.5625
v 0.03125 0.21875 0.9375
v 0.0625 0.25 1.5625
v -0.03125 0.21875 0.9375
v -0.0625 0.25 1.5625
v 0 0 0.875
v 0.15625 0.09375 0.875
v -0.0625 0.15625 0.9375
v -0.09375 0.125 1.5625
v -0.15625 0.09375 0.875
v -0.15625 0.09375 0.75
v 0 0 0.75
v 0.09375 0.3125 0.875
v -0.09375 0.3125 0.875
v 0 0.15625 0.75
v 0.4375 0.15625 0.75
v 0.4375 0.15625 -1.71875
v 0 0.15625 -1.71875
v 0.09375 0.3125 0.75
v -0.09375 0.3125 0.75
v 0.15625 0.09375 0.75
v 0 0.15625 1.625
v -0.4375 0.15625 -1.71875
v -0.4375 0.15625 0.75
vt 0.328125 0.96875
vt 0.484375 0.96875
vt 0.484375 1
vt 0.328125 1
vt 0.28125 0.859375
vt 0.296875 0.703125
vt 0.3125 0.703125
vt 0.328125 0.859375
vt 0.2265625 0.859375
vt 0.234375 0.703125
vt 0.25 0.703125
vt 0.2578125 0.859375
vt 0.4375 0.84375
vt 0.40625 0.84375
vt 0.390625 0.8125
vt 0.453125 0.8125
vt 0.40625 0.90625
vt 0.25 0.90625
vt 0.25 0.890625
vt 0.40625 0.875
vt 0.3125 0.515625
vt 0.3125 0.671875
vt 0.28125 0.671875
vt 0.28125 0.515625
vt 0.40625 0.640625
vt 0.40625 0.6875
vt 0.375 0.6875
vt 0.375 0.640625
vt 0.359375 0.703125
vt 0.375 0.703125
vt 0.390625 0.734375
vt 0.34375 0.734375
vt 0.34375 0.921875
vt 0.375 0.921875
vt 0.390625 0.953125
vt 0.328125 0.953125
vt 0.34375 0.84375
vt 0.34375 0.828125
vt 0.375 0.796875
vt 0.375 0.859375
vt 0.359375 0.5625
vt 0.359375 0.59375
vt 0.328125 0.609375
vt 0.328125 0.546875
vt 0.109375 0.375
vt 0.21875 0.375
vt 0.21875 1
vt 0.109375 1
vt 0.34375 0.75
vt 0.390625 0.75
vt 0.390625 0.78125
vt 0.34375 0.78125
vt 0.375 0.625
vt 0.375 0.578125
vt 0.40625 0.578125
vt 0.40625 0.625
vt 0.265625 0.609375
vt 0.265625 0.671875
vt 0.234375 0.671875
vt 0.234375 0.609375
vt 0.328125 0.6875
vt 0.328125 0.625
vt 0.359375 0.625
vt 0.359375 0.6875
vt 0.453125 0.890625
vt 0.421875 0.875
vt 0.453125 0.859375
vt 0.234375 0.578125
vt 0.265625 0.5625
vt 0.265625 0.59375
vt 0.40625 0.765625
vt 0.4375 0.78125
vt 0.40625 0.796875
vt 0.4375 0.921875
vt 0.4375 0.953125
vt 0.40625 0.9375
vt 0.4375 0.734375
vt 0.40625 0.734375
vt 0.421875 0.703125
vt 0.2734375 0.9609375
vt 0.234375 0.9453125
vt 0.2734375 0.921875
vt 0.2734375 0.9609375
vt 0.25 1
vt 0.234375 0.9453125
vt 0.2734375 0.9609375
vt 0.296875 1
vt 0.25 1
vt 0.2734375 0.9609375
vt 0.3125 0.9453125
vt 0.296875 1
vt 0.2734375 0.9609375
vt 0.2734375 0.921875
vt 0.3125 0.9453125
vt 0.109375 0.375
vt 0.109375 1
vt 0 1
vt 0 0.375
vn 0.7066652533375734 -0.7066652533375734 -0.03533326266687867
vn 0.8942036680197918 0.4471018340098959 -0.022355091700494795
vn 0 0.9987523388778448 -0.049937616943892246
vn 0.48507125007266594 -0.48507125007266594 0.7276068751089989
vn -0.8924214965063204 0.4462107482531602 -0.06693161223797403
vn -0.7053456158585983 -0.7053456158585983 -0.07053456158585984
vn -0.5144957554275266 -0.8574929257125443 0
vn 0 0.5547001962252291 0.8320502943378437
vn -0.4815434123430768 0.2407717061715384 0.8427009716003844
vn 0.6666666666666666 0.3333333333333333 0.6666666666666666
vn -0.3481553119113957 -0.3481553119113957 0.8703882797784892
vn 0 1 0
vn 0 1 0
vn 0.5144957554275266 -0.8574929257125443 0
vn -0.9615239476408232 0.27472112789737807 0
vn 0.9615239476408232 0.27472112789737807 0
vn 0.346843987809648 -0.5202659817144719 0.780398972571708
vn 0.5819143739626464 0.1454785934906616 0.8001322641986389
vn 0 0.5547001962252291 0.8320502943378437
vn -0.5819143739626464 0.1454785934906616 0.8001322641986389
vn -0.346843987809648 -0.5202659817144719 0.780398972571708
vn 0 0 -1
vn 0 0 -1
vn 0 0 -1
vn 0 0 -1
vn 0 0 -1
vn 0 1 0
usemtl m_c6759d40-a224-fdd9-1360-99527acf9cc3
f 1/1/1 2/2/1 3/3/1 4/4/1
f 4/5/2 3/6/2 5/7/2 6/8/2
f 6/9/3 5/10/3 7/11/3 8/12/3
f 3/13/4 2/14/4 9/15/4 10/16/4
f 8/17/5 7/18/5 11/19/5 12/20/5
f 12/21/6 11/22/6 2/23/6 1/24/6
f 9/25/7 13/26/7 14/27/7 15/28/7
f 7/29/8 5/30/8 16/31/8 17/32/8
f 11/33/9 7/34/9 17/35/9 13/36/9
f 5/37/10 3/38/10 10/39/10 16/40/10
f 2/41/11 11/42/11 13/43/11 9/44/11
f 18/45/12 19/46/12 20/47/12 21/48/12
f 17/49/13 16/50/13 22/51/13 23/52/13
f 10/53/14 9/54/14 15/55/14 24/56/14
f 13/57/15 17/58/15 23/59/15 14/60/15
f 16/61/16 10/62/16 24/63/16 22/64/16
f 25/65/17 1/66/17 4/67/17
f 25/68/18 4/69/18 6/70/18
f 25/71/19 6/72/19 8/73/19
f 25/74/20 8/75/20 12/76/20
f 25/77/21 12/78/21 1/79/21
f 18/80/22 24/81/22 15/82/22
f 18/83/23 22/84/23 24/85/23
f 18/86/24 23/87/24 22/88/24
f 18/89/25 14/90/25 23/91/25
f 18/92/26 15/93/26 14/94/26
f 18/95/27 21/96/27 26/97/27 27/98/27